<mxfile host="app.diagrams.net" agent="Mozilla/5.0 (Macintosh; Intel Mac OS X 10_15_7) AppleWebKit/537.36 (KHTML, like Gecko) Chrome/139.0.0.0 Safari/537.36" version="28.2.0">
  <diagram name="Page-1" id="8pshBKQ2pK0eMqm2NnR-">
    <mxGraphModel dx="1634" dy="824" grid="0" gridSize="10" guides="1" tooltips="1" connect="1" arrows="1" fold="1" page="0" pageScale="1" pageWidth="850" pageHeight="1100" math="0" shadow="0">
      <root>
        <mxCell id="0" />
        <mxCell id="1" parent="0" />
        <mxCell id="MYFG9k5j27I_2gZLGBYB-1" value="&lt;font style=&quot;font-size: 24px;&quot;&gt;&lt;b style=&quot;&quot;&gt;文档加载&lt;/b&gt;&lt;/font&gt;" style="text;html=1;align=center;verticalAlign=middle;whiteSpace=wrap;rounded=0;" vertex="1" parent="1">
          <mxGeometry x="-53" y="173" width="105" height="30" as="geometry" />
        </mxCell>
        <mxCell id="MYFG9k5j27I_2gZLGBYB-2" value="&lt;div&gt;&lt;font style=&quot;font-size: 16px;&quot;&gt;示例文档内容：&lt;/font&gt;&lt;/div&gt;&lt;div&gt;&lt;font style=&quot;font-size: 16px;&quot;&gt;• 农夫山泉公司介绍.md&lt;/font&gt;&lt;/div&gt;&lt;div&gt;&lt;font style=&quot;font-size: 16px;&quot;&gt;• 产品线说明.md&lt;/font&gt;&lt;/div&gt;&lt;div&gt;&lt;font style=&quot;font-size: 16px;&quot;&gt;• 水源地信息.md&lt;/font&gt;&lt;/div&gt;&lt;div&gt;&lt;font style=&quot;font-size: 16px;&quot;&gt;• 质量检测标准.md&lt;/font&gt;&lt;/div&gt;" style="text;html=1;align=left;verticalAlign=middle;whiteSpace=wrap;rounded=0;" vertex="1" parent="1">
          <mxGeometry x="-80" y="226" width="171" height="108" as="geometry" />
        </mxCell>
        <mxCell id="MYFG9k5j27I_2gZLGBYB-3" value="&lt;b style=&quot;&quot;&gt;&lt;font style=&quot;font-size: 24px;&quot;&gt;知识图谱构建&lt;/font&gt;&lt;/b&gt;" style="text;html=1;align=center;verticalAlign=middle;whiteSpace=wrap;rounded=0;" vertex="1" parent="1">
          <mxGeometry x="441" y="185" width="149" height="30" as="geometry" />
        </mxCell>
        <mxCell id="MYFG9k5j27I_2gZLGBYB-4" value="&lt;b style=&quot;&quot;&gt;&lt;font style=&quot;font-size: 24px;&quot;&gt;测试数据集合成&lt;/font&gt;&lt;/b&gt;" style="text;html=1;align=center;verticalAlign=middle;whiteSpace=wrap;rounded=0;" vertex="1" parent="1">
          <mxGeometry x="776" y="182" width="171" height="30" as="geometry" />
        </mxCell>
        <mxCell id="MYFG9k5j27I_2gZLGBYB-5" value="&lt;span style=&quot;font-size: 20px;&quot;&gt;&lt;b&gt;文档分块&lt;/b&gt;&lt;/span&gt;" style="text;html=1;align=center;verticalAlign=middle;whiteSpace=wrap;rounded=0;" vertex="1" parent="1">
          <mxGeometry x="382" y="326" width="124" height="30" as="geometry" />
        </mxCell>
        <mxCell id="MYFG9k5j27I_2gZLGBYB-6" value="&lt;span style=&quot;font-size: 20px;&quot;&gt;&lt;b&gt;信息提取&lt;/b&gt;&lt;/span&gt;" style="text;html=1;align=center;verticalAlign=middle;whiteSpace=wrap;rounded=0;" vertex="1" parent="1">
          <mxGeometry x="502" y="324" width="124" height="30" as="geometry" />
        </mxCell>
        <mxCell id="MYFG9k5j27I_2gZLGBYB-7" value="&lt;span style=&quot;font-size: 20px;&quot;&gt;&lt;b&gt;关系构建&lt;/b&gt;&lt;/span&gt;" style="text;html=1;align=center;verticalAlign=middle;whiteSpace=wrap;rounded=0;" vertex="1" parent="1">
          <mxGeometry x="633" y="328" width="124" height="30" as="geometry" />
        </mxCell>
      </root>
    </mxGraphModel>
  </diagram>
</mxfile>
